<svg class="MuiSvgIcon-root" focusable="false" width="24" height="24" viewBox="5 0 24 24" aria-hidden="true" fill="currentColor">
<g filter="url(#filter0_d_736_3777)">
<path d="M13 15.1795H15L16.3334 12.5128V8.51282H12.3334V12.5128H14.3334L13 15.1795ZM18.3334 15.1795H20.3334L21.6667 12.5128V8.51282H17.6667V12.5128H19.6667L18.3334 15.1795Z"/>
<path d="M25 3.84616H9C7.9 3.84616 7 4.74616 7 5.84616V23.8462L11 19.8462H25C26.1 19.8462 27 18.9462 27 17.8462V5.84616C27 4.74616 26.1 3.84616 25 3.84616ZM25 17.8462H11L9 19.8462V5.84616H25V17.8462Z"/>
</g>
<defs>
<filter id="filter0_d_736_3777" x="0" y="0" width="34" height="35.8462" filterUnits="userSpaceOnUse" color-interpolation-filters="sRGB">
<feFlood flood-opacity="0" result="BackgroundImageFix"/>
<feColorMatrix in="SourceAlpha" type="matrix" values="0 0 0 0 0 0 0 0 0 0 0 0 0 0 0 0 0 0 127 0" result="hardAlpha"/>
<feOffset dy="5"/>
<feGaussianBlur stdDeviation="2.5"/>
<feColorMatrix type="matrix" values="0 0 0 0 0 0 0 0 0 0 0 0 0 0 0 0 0 0 0.25 0"/>
<feBlend mode="normal" in2="BackgroundImageFix" result="effect1_dropShadow_736_3777"/>
<feBlend mode="normal" in="SourceGraphic" in2="effect1_dropShadow_736_3777" result="shape"/>
</filter>
</defs>
</svg>
