<svg width="103" height="102" viewBox="0 0 103 102" fill="none" xmlns="http://www.w3.org/2000/svg">
<path d="M25.5469 30.3438C35.3906 21.9375 41.6094 15.375 44.2031 10.6562C44.6719 9.78125 44.9531 9.14063 45.0469 8.73438C45.1094 8.60937 45.1875 8.35938 45.2812 7.98438C45.4062 7.45313 45.4531 7.03125 45.4219 6.71875C45.3906 6.375 45.375 6.20312 45.375 6.20312C45.375 6.17187 45.3438 6.07812 45.2812 5.92188C45.3125 5.57813 45.0938 5.21875 44.625 4.84375C44.1875 4.46875 43.5156 4.28125 42.6094 4.28125C41.4219 4.28125 40.4062 4.5625 39.5625 5.125C39.5 5.125 39.2656 5.26562 38.8594 5.54688C37.3281 6.57812 35.8594 8.15625 34.4531 10.2812C30.6406 15.7812 27.6719 22.4688 25.5469 30.3438ZM22.0312 60.0625C22.9375 60.0625 23.8594 59.8594 24.7969 59.4531C27.2969 58.5156 29.6562 56.3594 31.875 52.9844C33.5312 50.4219 34.625 47.9062 35.1562 45.4375C35.4688 44 35.5781 42.6406 35.4844 41.3594C35.5469 40.9531 35.4688 40.4375 35.25 39.8125C34.8125 37.9375 33.9531 37 32.6719 37C31.0781 37 28.9219 38.375 26.2031 41.125C24.0156 43.4375 22.4219 45.9531 21.4219 48.6719L19.1719 59.2656C20.1406 59.7969 21.0938 60.0625 22.0312 60.0625ZM23.5312 64.8438C22.0938 64.8438 20.7188 64.7031 19.4062 64.4219C18.125 64.2656 17 63.8906 16.0312 63.2969C15.375 63.2969 14.8594 63.2031 14.4844 63.0156C14.0781 62.7969 13.9062 62.5312 13.9688 62.2188L20.1562 35.4062C21.1875 30.875 22.5781 26.3438 24.3281 21.8125C26.0781 17.25 28.4531 12.8438 31.4531 8.59375C35.2969 3.34375 39.2969 0.71875 43.4531 0.71875C45.1094 0.78125 46.3906 1.23438 47.2969 2.07812C48.7656 3.42188 49.25 5.25 48.75 7.5625C48.5938 8.25 48.375 9.01562 48.0938 9.85938C45.2188 16.0781 37.3438 24.3438 24.4688 34.6562L23.2969 40.0938C23.8281 39.4688 24.375 38.8594 24.9375 38.2656C25.3438 37.9219 25.6094 37.6562 25.7344 37.4688C26.4219 36.9062 26.8125 36.5781 26.9062 36.4844C29.25 34.5469 31.4531 33.5781 33.5156 33.5781C34.7656 33.5781 35.8125 33.9219 36.6562 34.6094C37.75 35.5469 38.4844 36.7656 38.8594 38.2656C39.5156 40.2344 39.5 42.8281 38.8125 46.0469C37.9062 50.3906 35.7969 54.4688 32.4844 58.2812C32.1094 58.7188 31.7344 59.125 31.3594 59.5C33.1406 58.9062 34.9219 58.0781 36.7031 57.0156C42.3281 53.4844 46.6562 48.4062 49.6875 41.7812C49.75 41.6562 49.9375 41.5938 50.25 41.5938C50.5625 41.5938 50.9219 41.6406 51.3281 41.7344C51.7344 41.7969 52.0469 41.9062 52.2656 42.0625C52.5156 42.1875 52.625 42.3125 52.5938 42.4375C51.2188 45.8438 49.3281 49.0938 46.9219 52.1875C44.5156 55.25 41.6562 57.8906 38.3438 60.1094C34.9688 62.2969 31.3906 63.75 27.6094 64.4688C26.2344 64.7188 24.875 64.8438 23.5312 64.8438ZM11.25 97.1875C13.2188 97.1875 15.4062 96.7344 17.8125 95.8281C21.7812 94.2656 25.4062 91.9375 28.6875 88.8438C34.1875 83.7812 38.5156 77.1406 41.6719 68.9219C35.6406 69.4219 30.0469 70.4219 24.8906 71.9219C14.5781 74.9844 8.03125 80.0469 5.25 87.1094C5.1875 87.3906 5.10938 87.625 5.01562 87.8125L4.64062 89.2188L4.54688 89.875C4.04688 92.6875 4.89063 94.7344 7.07812 96.0156C7.29687 96.2031 7.48437 96.2969 7.64062 96.2969C7.73438 96.3906 7.9375 96.5 8.25 96.625C8.53125 96.75 8.70312 96.8125 8.76562 96.8125C9.23438 97.0625 10.0625 97.1875 11.25 97.1875ZM11.25 101.172C9.9375 101.172 8.57812 101.031 7.17188 100.75C7.17188 100.719 7.14063 100.703 7.07812 100.703L5.29688 99.9531C3.98438 99.3906 2.85938 98.4531 1.92188 97.1406C0.515625 95.2031 0.078125 92.8438 0.609375 90.0625C0.984375 88.3438 1.21875 87.4375 1.3125 87.3438L1.35938 87.0625C2.29688 84.4688 3.67188 82.0625 5.48438 79.8438C12.3906 71.4062 24.9062 66.5625 43.0312 65.3125C44.2188 61.8438 45.2969 58.0781 46.2656 54.0156L52.5 28.375C52.6562 27.7812 52.9844 27.2969 53.4844 26.9219C54.0156 26.5469 54.6094 26.3594 55.2656 26.3594C55.8906 26.4219 56.3594 26.6406 56.6719 27.0156C57.0156 27.3906 57.1406 27.8438 57.0469 28.375L50.625 54.1562C49.6562 58.0625 48.5781 61.7188 47.3906 65.125L53.4844 64.9844C64.8281 64.9844 76.6406 66.1719 88.9219 68.5469C92.0156 69.1094 95.0469 69.8125 98.0156 70.6562C100.109 71.2188 101.328 71.6562 101.672 71.9688C102.078 72.4062 102.234 72.8438 102.141 73.2812C102.109 73.4375 102.047 73.6094 101.953 73.7969C101.547 74.3906 100.938 74.6875 100.125 74.6875C99.875 74.6875 99.6094 74.6562 99.3281 74.5938C97.9844 74.125 96.0781 73.5781 93.6094 72.9531C80.2344 69.9844 66.6875 68.4844 52.9688 68.4531C50.0625 68.5156 47.7656 68.5781 46.0781 68.6406C44.4531 72.8594 42.6562 76.6562 40.6875 80.0312C38.1562 84.25 35.0156 88.0938 31.2656 91.5625C27.2969 95.1875 23.0469 97.8594 18.5156 99.5781C15.7031 100.516 13.2813 101.047 11.25 101.172ZM56.5781 22.75C56.3594 22.75 56.0781 22.75 55.7344 22.75C55.3906 22.7188 55.1094 22.6875 54.8906 22.6562C54.6719 22.625 54.5625 22.5938 54.5625 22.5625L56.0625 13C56.0625 12.9688 56.2812 12.9531 56.7188 12.9531C57.9688 12.9844 59.25 13.0781 60.5625 13.2344L56.9531 22.7031C56.9531 22.7344 56.8281 22.75 56.5781 22.75ZM66.4219 28.6562C67.4531 25.9688 68.0312 24.3281 68.1562 23.7344C68.25 23.2344 68.2188 22.9688 68.0625 22.9375C67.9375 22.875 67.7812 22.8438 67.5938 22.8438C67.0625 22.8438 66.4688 23.25 65.8125 24.0625C65.5312 24.4688 65.3438 24.9062 65.25 25.375C65 26.5625 65.1875 27.4844 65.8125 28.1406C65.8438 28.2656 65.9062 28.3281 66 28.3281C66.0938 28.4531 66.2344 28.5625 66.4219 28.6562ZM70.7344 61.2344C70.0156 61.2344 69.375 61.0938 68.8125 60.8125C68.2812 60.5312 67.9688 60.3438 67.875 60.25C67.7812 60.1562 67.7031 60.0938 67.6406 60.0625C67.1719 59.375 66.9062 58.5312 66.8438 57.5312C66.7812 56.5 66.9375 55.1094 67.3125 53.3594C68.5312 47.6719 71.0156 41.0312 74.7656 33.4375C73.4219 33.8438 72.1562 34.0469 70.9688 34.0469C69.875 34.0156 68.8438 33.9062 67.875 33.7188C65.375 39.25 63.875 42.0156 63.375 42.0156C63.0312 42.0156 62.6562 41.9531 62.25 41.8281C61.8438 41.7031 61.5312 41.5469 61.3125 41.3594C61.125 41.1719 61.0469 41.0156 61.0781 40.8906C62.3281 38.4219 63.5625 35.7344 64.7812 32.8281C63.9688 32.4844 63.375 32.1406 63 31.7969C61.3125 29.9844 60.7344 27.8906 61.2656 25.5156C61.4219 24.7344 61.7969 23.8281 62.3906 22.7969C63.4531 21.2656 64.6094 20.2188 65.8594 19.6562C66.6094 19.2188 67.4062 19 68.25 19C69.875 19 70.9844 19.6406 71.5781 20.9219C71.9531 21.6719 72.0312 22.6094 71.8125 23.7344C71.5938 24.6719 70.875 26.625 69.6562 29.5938C70.25 29.6562 70.875 29.7031 71.5312 29.7344C72.5312 29.7344 73.3594 29.6094 74.0156 29.3594C75.2656 28.9844 77.0469 28.0312 79.3594 26.5L79.5 26.4531C79.8438 26.4531 80.2969 26.9688 80.8594 28C81.0781 28.375 81.2812 28.6719 81.4688 28.8906C81.5 28.8906 81.5156 28.9062 81.5156 28.9375C81.7656 29.125 81.875 29.2969 81.8438 29.4531L81.5156 29.9219C81.4844 29.9844 81.4375 30.0469 81.375 30.1094C80.5938 31.2656 79.5625 33.0469 78.2812 35.4531C76.0625 39.8906 74.1719 44.3125 72.6094 48.7188C71.9219 50.6875 71.4062 52.4375 71.0625 53.9688C70.6875 55.7812 70.6094 56.875 70.8281 57.25C70.9531 57.25 71 57.2969 70.9688 57.3906L71.5312 57.4844C72.3125 57.4844 73.3125 56.9375 74.5312 55.8438C76.7812 53.7812 79 50.9531 81.1875 47.3594C82.625 45.1406 83.8125 43.0312 84.75 41.0312C84.8438 40.8438 85.1719 40.75 85.7344 40.75C85.9531 40.75 86.1875 40.7812 86.4375 40.8438C87.3438 41.0312 87.75 41.3125 87.6562 41.6875C87.5625 42.1562 87 43.3438 85.9688 45.25C82.1875 52.2188 78.5156 57.0312 74.9531 59.6875C73.4219 60.7188 72.0156 61.2344 70.7344 61.2344Z" fill="currentColor"/>
</svg>
